inDegrees=yes
name=ik_S44_A04_T01
DataType=double
version=3
OpenSimVersion=4.3-2021-08-27-4bc7ad9
endheader
time	pelvis_tilt	pelvis_list	pelvis_rotation	pelvis_tx	pelvis_ty	pelvis_tz	hip_flexion_r	hip_adduction_r	hip_rotation_r	knee_angle_r	knee_angle_r_beta	ankle_angle_r	subtalar_angle_r	mtp_angle_r	hip_flexion_l	hip_adduction_l	hip_rotation_l	knee_angle_l	knee_angle_l_beta	ankle_angle_l	subtalar_angle_l	mtp_angle_l	lumbar_extension	lumbar_bending	lumbar_rotation	arm_flex_r	arm_add_r	arm_rot_r	elbow_flex_r	pro_sup_r	wrist_flex_r	wrist_dev_r	arm_flex_l	arm_add_l	arm_rot_l	elbow_flex_l	pro_sup_l	wrist_flex_l	wrist_dev_l
14.09999999999979	7.265414161189455	0.1658159244724217	39.90318058364117	0	0.9399999999999999	0	0.8373612655424618	-5.030902507040905	-9.695242797324136	11.05735546458305	0.1929872594203614	0	0	0	2.32226254945239	-7.050535297469842	-9.157666504076701	10.7603141542327	0.1878029105403096	0	0	0	0	0	0	26.47334271871294	-26.47334271871294	4.007407716492894	72.65610249068263	85.99259251058196	0	0	26.47334271871294	-26.47334271871294	4.007407716492894	72.65610249068263	85.99259251039554	0	0
14.11999999999979	6.751489895874943	-0.01516695850767861	39.90160194795393	0	0.9399999999999999	0	1.908399475701056	-5.402974663630378	-9.903247701919147	12.04986566544489	0.2103098302850308	0	0	0	3.37810512637794	-6.843568988071432	-9.18533506651873	11.56819182908012	0.2019030359197533	0	0	0	0	0	0	26.47888043405395	-26.47888043405396	4.007991392187905	72.66348215700212	85.9920088349175	0	0	26.47888043405395	-26.47888043405396	4.007991392187905	72.66348215700212	85.99200883473119	0	0
14.13999999999979	6.375392336742097	-0.08441176684032352	39.8978411661321	0	0.9399999999999999	0	2.844959800020993	-5.580866888518608	-9.807498035217627	13.13393150142796	0.2292303484313202	0	0	0	4.251237488372593	-6.644744178925589	-9.179031142590983	12.43545122266496	0.2170395678066581	0	0	0	0	0	0	26.48307677239763	-26.48307677239763	4.008432489606608	72.66905829996374	85.99156773752199	0	0	26.48307677239763	-26.48307677239763	4.008432489606608	72.66905829996374	85.99156773733576	0	0
14.15999999999979	6.139430516633205	-0.1573401349754904	39.91518828524638	0	0.9399999999999999	0	3.632111748425495	-5.532677572306882	-9.767336130952804	14.53511666450415	0.2536856429570934	0	0	0	5.059533316074243	-6.46353661920679	-9.211587076953913	13.34937176154638	0.2329904903117396	0	0	0	0	0	0	26.48635306394539	-26.48635306394539	4.008775888916885	72.67339870660733	85.99122433822966	0	0	26.48635306394539	-26.48635306394539	4.008775888916885	72.67339870660733	85.99122433804351	0	0
14.17999999999979	5.157262263738467	-0.6019241818865185	40.1467528995173	0	0.9399999999999999	0	4.963423443027794	-5.906953924875963	-10.77802839417024	15.17772446710704	0.2649012649115197	0	0	0	6.785919308836273	-6.144768659066909	-8.912323234884354	14.15483944557507	0.2470485534164537	0	0	0	0	0	0	26.49069284679289	-26.49069284679289	4.009234564649842	72.6791985403993	85.99076566252074	0	0	26.49069284679289	-26.49069284679289	4.009234564649842	72.6791985403993	85.99076566233468	0	0
14.19999999999979	4.754227251099109	-0.8389351540229959	40.24212199672835	0	0.9399999999999999	0	5.392008852401275	-6.044243130179278	-10.99584435736499	15.1311891279138	0.2640890700240653	0	0	0	7.97669414456837	-6.064262420350022	-8.918491973357694	15.28034998569251	0.2666924181074028	0	0	0	0	0	0	26.49755655025465	-26.49755655025465	4.009950740247374	72.68824811894333	85.99004948696079	0	0	26.49755655025465	-26.49755655025465	4.009950740247374	72.68824811894333	85.99004948677485	0	0
14.21999999999979	4.448221237235416	-1.039362868653623	40.28775069418417	0	0.9399999999999999	0	6.198074899313347	-6.306251474237252	-11.21273963923041	16.15290139415469	0.2819213130779816	0	0	0	9.118010711807402	-6.064402137418155	-9.209279907345705	16.59837580923234	0.2896963083544826	0	0	0	0	0	0	26.50257205131075	-26.50257205131076	4.010478675263411	72.69492213734635	85.98952155197237	0	0	26.50257205131075	-26.50257205131076	4.010478675263411	72.69492213734635	85.98952155178651	0	0
14.23999999999979	4.133269648801723	-1.289338665329213	40.36735432874172	0	0.9399999999999999	0	7.93857751237157	-6.118321341605258	-10.28057906403581	18.50589761460678	0.322988844411853	0	0	0	10.3824463226126	-5.97574806534512	-9.280313496915273	18.06151208318919	0.3152328537403914	0	0	0	0	0	0	26.50793556439105	-26.50793556439105	4.011046063938796	72.70209660736647	85.98895416332672	0	0	26.50793556439105	-26.50793556439105	4.011046063938796	72.70209660736647	85.98895416314102	0	0
14.25999999999978	3.995200471300985	-1.452427651505143	40.43221382433012	0	0.9399999999999999	0	8.105038391333075	-6.125628263057728	-10.5080623443454	18.32129309952131	0.3197668878095639	0	0	0	11.45658970348467	-5.906890350679374	-9.462715240356003	19.54196978917195	0.3410717151463126	0	0	0	0	0	0	26.5139184620119	-26.51391846201191	4.011674817207774	72.71004413907355	85.98832541009072	0	0	26.5139184620119	-26.51391846201191	4.011674817207774	72.71004413907355	85.98832540990514	0	0
14.27999999999978	3.762951018846136	-1.801942545986903	40.66532917163892	0	0.9399999999999999	0	8.481269466972678	-6.080509014698566	-10.78711266527371	18.71816378772478	0.3266935880233705	0	0	0	12.67236200047238	-6.062727621301204	-9.897092031090716	21.3595034784234	0.3727936622896698	0	0	0	0	0	0	26.51889068381552	-26.51889068381552	4.012200098772354	72.71668551280706	85.98780012855369	0	0	26.51889068381552	-26.51889068381552	4.012200098772354	72.71668551280706	85.98780012836816	0	0
14.29999999999978	3.606293347208777	-2.235304734283603	40.82737039403531	0	0.9399999999999999	0	8.922203307118757	-5.805698646292747	-10.69748663348922	19.54154643683987	0.3410643262542218	0	0	0	13.84172408598202	-6.206334457272482	-10.40539193811561	22.68249900912908	0.3958842902896538	0	0	0	0	0	0	26.52278925767908	-26.52278925767909	4.012612125875446	72.72189499691775	85.98738810147219	0	0	26.52278925767908	-26.52278925767909	4.012612125875446	72.72189499691775	85.98738810128675	0	0
14.31999999999978	3.495659385227649	-2.651193531965697	40.97617327203849	0	0.9399999999999999	0	9.266868311973965	-5.575365907561017	-10.90757818129837	19.9834032386044	0.3487761822673448	0	0	0	14.95055744560296	-6.247197453676835	-10.62550499622965	23.91608874667499	0.4174144928286426	0	0	0	0	0	0	26.52684412216305	-26.52684412216306	4.013039526042382	72.72729806992375	85.98696070132762	0	0	26.52684412216305	-26.52684412216306	4.013039526042382	72.72729806992375	85.98696070114229	0	0
14.33999999999978	3.338593747663417	-3.037506717889532	41.07335977890086	0	0.9399999999999999	0	12.03080121021186	-5.286971969295585	-11.57721403012413	22.60570211911837	0.394543931703675	0	0	0	15.9667521712453	-6.478280768856349	-11.26663358186712	25.06979874675899	0.4375505309432925	0	0	0	0	0	0	26.75934867540261	-26.75934867540261	4.03388789388326	72.98852972080127	85.96611233455174	0	0	26.75934867540261	-26.75934867540261	4.03388789388326	72.98852972080127	85.96611233437034	0	0
14.35999999999978	3.166802560228501	-3.334646339681204	41.10307601317812	0	0.9399999999999999	0	12.96574732258532	-5.158110623687956	-11.91254649960647	23.48100460165594	0.4098208419748358	0	0	0	16.85282297516504	-6.594199847188445	-11.87252688597882	26.02190590308335	0.4541679356529529	0	0	0	0	0	0	26.76381687970869	-26.76381687970869	4.034355206851909	72.99443230403529	85.96564502160756	0	0	26.76381687970869	-26.76381687970869	4.034355206851909	72.99443230403529	85.96564502142627	0	0
14.37999999999978	2.809447645409224	-3.754915802971111	41.19360823939202	0	0.9399999999999999	0	13.87673920355912	-4.999944745879333	-12.67594646568331	24.29247797845065	0.42398372419218	0	0	0	18.04832782304132	-6.612848137310319	-11.81083375703965	27.08295090075051	0.4726866643740605	0	0	0	0	0	0	26.76924604110364	-26.76924604110364	4.034922954122214	73.00160331778184	85.96507727436696	0	0	26.76924604110364	-26.76924604110364	4.034922954122214	73.00160331778184	85.96507727418577	0	0
14.39999999999978	2.810738372138917	-3.755392244669679	41.19488480812425	0	0.9399999999999999	0	14.27769940572661	-4.948498863389534	-13.33956316792966	25.06698316031829	0.4375013896895277	0	0	0	18.78511342995798	-6.559663786651696	-11.60502468038786	28.17162143071459	0.4916875495913651	0	0	0	0	0	0	26.77375808127785	-26.77375808127785	4.035395755746043	73.00757560272129	85.96460447276787	0	0	26.77375808127785	-26.77375808127785	4.035395755746043	73.00757560272129	85.96460447258676	0	0
14.41999999999978	2.338232117262087	-4.298892617789418	41.2067724812002	0	0.9399999999999999	0	15.56682261433335	-4.820588685647459	-13.66083769311052	26.02412993152732	0.4542067522719582	0	0	0	20.08810838624717	-6.769097676367878	-12.03664588105526	28.92752358192962	0.5048805309529755	0	0	0	0	0	0	26.77837039672964	-26.77837039672964	4.0358764038195	73.01364532452922	85.96412382471952	0	0	26.77837039672964	-26.77837039672964	4.0358764038195	73.01364532452922	85.96412382453853	0	0
14.43999999999978	2.172743470559681	-4.482888790301082	41.09214127901149	0	0.9399999999999999	0	16.38980697256922	-4.75413755291767	-13.92472207908804	26.96844967331278	0.4706882409576972	0	0	0	20.32048886431183	-6.832296359129946	-12.09208755810048	29.23908788335563	0.5103183538445354	0	0	0	0	0	0	26.78198866030675	-26.78198866030675	4.036254412009021	73.01841940840826	85.96374581654979	0	0	26.78198866030675	-26.78198866030675	4.036254412009021	73.01841940840826	85.96374581636888	0	0
14.45999999999978	1.843145662404458	-4.721344234026268	41.02533588496784	0	0.9399999999999999	0	17.31097110436304	-4.676365130092526	-14.56206199735567	28.1390381990918	0.4911188649186076	0	0	0	21.88555112369697	-6.749326742972957	-12.29446029477312	30.69162777691209	0.5356699575036636	0	0	0	0	0	0	26.78639138466019	-26.78639138466019	4.036714228678681	73.02422655188475	85.96328599990422	0	0	26.78639138466019	-26.78639138466019	4.036714228678681	73.02422655188475	85.96328599972337	0	0
14.47999999999978	1.647190963675099	-4.825357451857774	41.03911020654188	0	0.9399999999999999	0	17.97746395718107	-4.658847350562246	-15.20807300512554	28.970124978868	0.5056240655954992	0	0	0	22.12364396460049	-6.636012751817513	-12.20558542801826	31.42830502625327	0.5485274010292025	0	0	0	0	0	0	26.79126047933298	-26.79126047933298	4.037223811136681	73.03066275345608	85.96277641747291	0	0	26.79126047933298	-26.79126047933298	4.037223811136681	73.03066275345608	85.96277641729213	0	0
14.49999999999978	1.347683255536129	-4.997242904547251	41.05255619463483	0	0.9399999999999999	0	18.86660109163473	-4.597904273833109	-15.48927114407787	29.86530338979392	0.5212478762589273	0	0	0	23.73134988364632	-6.598851394854266	-12.3233438116386	32.94570029907893	0.5750109445942079	0	0	0	0	0	0	26.79811939658899	-26.79811939658899	4.037939434217393	73.03969975700386	85.9620607944296	0	0	26.79811939658899	-26.79811939658899	4.037939434217393	73.03969975700386	85.96206079424897	0	0
14.51999999999978	1.032883217460115	-5.187665969691368	40.98399619037567	0	0.9399999999999999	0	19.79655070061133	-4.455747754448722	-15.65189865875688	30.69887451141503	0.5357964368807578	0	0	0	24.71545766610821	-6.510590176256032	-12.90094130494611	33.63818776100248	0.5870971308335527	0	0	0	0	0	0	26.80101897258512	-26.80101897258512	4.038241096931858	73.04350867292634	85.96175913173097	0	0	26.80101897258512	-26.80101897258512	4.038241096931858	73.04350867292634	85.96175913155037	0	0
14.53999999999978	0.8081664343908792	-5.351097164233165	40.96828515992538	0	0.9399999999999999	0	20.57736247850318	-4.266722522074126	-16.22037565121094	31.59670946766917	0.5514666130068918	0	0	0	25.69117243719731	-6.408274843610734	-13.17876567242828	34.85241501129328	0.6082893942185644	0	0	0	0	0	0	26.80531976558734	-26.80531976558735	4.0386889519069	73.04916366836306	85.96131127677937	0	0	26.80531976558734	-26.80531976558735	4.0386889519069	73.04916366836306	85.96131127659882	0	0
14.55999999999978	0.5417854234652333	-5.571286065268399	41.07375898621006	0	0.9399999999999999	0	21.4281359374125	-4.04978791707607	-16.74260738916272	32.11854431236106	0.5605743491983985	0	0	0	26.86565232622823	-6.220156534158871	-13.1950499646726	36.06514746872535	0.629455568546556	0	0	0	0	0	0	26.81074850629592	-26.81074850629593	4.039254872442224	73.05630972682991	85.96074535627365	0	0	26.81074850629592	-26.81074850629593	4.039254872442224	73.05630972682991	85.96074535609316	0	0
